<?xml version="1.0" encoding="UTF-8" standalone="no"?>
<svg width="18px" height="18px" viewBox="0 0 18 18" version="1.1" xmlns="http://www.w3.org/2000/svg" xmlns:xlink="http://www.w3.org/1999/xlink" xmlns:sketch="http://www.bohemiancoding.com/sketch/ns">
    <!-- Generator: Sketch 3.3.3 (12081) - http://www.bohemiancoding.com/sketch -->
    <title>birthday</title>
    <desc>Created with Sketch.</desc>
    <defs></defs>
    <g id="home" stroke="none" stroke-width="1" fill="none" fill-rule="evenodd" sketch:type="MSPage">
        <g id="profile" sketch:type="MSArtboardGroup" transform="translate(-536.000000, -483.000000)" fill="#FFFFFF">
            <g id="26-ОКТЯБРЯ-1986,-28--+-Shape-Copy" sketch:type="MSLayerGroup" transform="translate(536.000000, 483.000000)">
                <path d="M10.5032108,10.3593053 L10.5032108,17.3040604 L16.2162791,17.3040604 C16.9588098,17.3040604 17.5610216,16.7021893 17.5610216,15.9592326 L17.5610216,10.3593053 L10.5032108,10.3593053 Z M8.48324295,10.3593053 L1.42790281,10.3593053 L1.42790281,15.9592326 C1.42790281,16.7021893 2.03028509,17.3040604 2.77273051,17.3040604 L8.48324295,17.3040604 L8.48324295,10.3593053 L8.48324295,10.3593053 Z M3.26129019,15.8928219 C2.98248444,15.8928219 2.75628758,15.6665825 2.75628758,15.3878619 L2.75628758,12.5858322 C2.75628758,12.3070691 2.98252704,12.0808722 3.26129019,12.0808722 C3.54005333,12.0808722 3.7662928,12.3071543 3.7662928,12.5858322 L3.7662928,15.3878619 C3.7662928,15.6665825 3.54009593,15.8928219 3.26129019,15.8928219 Z M16.6536783,5.09322076 L14.1278984,5.09322076 C14.4765228,4.92589472 14.76896,4.7530309 14.9457854,4.57637583 C15.9861632,3.53616843 15.9861632,1.84880795 14.9457854,0.80843016 C14.4249789,0.28830516 13.7431082,0.028285258 13.0612801,0.028285258 C12.3793242,0.028285258 11.6973258,0.28830516 11.1772008,0.80843016 C10.7452116,1.24054711 10.3296228,2.30712285 9.9903275,3.40620107 C9.8318619,3.36270823 9.66875309,3.33225046 9.49716721,3.33225046 C9.32617772,3.33225046 9.16302631,3.36275083 9.00528487,3.40590289 C8.66466903,2.29689926 8.24516116,1.21584011 7.80912517,0.780102303 C7.28895757,0.259977303 6.60772588,0 5.92513104,0 C5.24321777,0 4.5613045,0.260019902 4.0411369,0.780102303 C3.0008017,1.82086348 3.0008017,3.50788317 4.0411369,4.54804797 C4.22724879,4.73496923 4.54081473,4.91775845 4.91704274,5.09322076 L2.3347776,5.09322076 C1.59228957,5.09322076 0.990674063,5.69504926 0.990674063,6.43745209 L0.990674063,7.58130111 C0.990674063,8.32378913 1.59228957,8.92531944 2.3347776,8.92531944 L8.48324295,8.92531944 L8.48324295,5.14655381 L10.5032108,5.14655381 L10.5032108,8.92531944 L16.6537209,8.92531944 C17.3961237,8.92531944 17.9978244,8.32370393 17.9978244,7.58125851 L17.9978244,6.43740949 C17.9977818,5.69504926 17.3960811,5.09322076 16.6536783,5.09322076 Z M12.1295279,1.76067211 C12.3780463,1.51198335 12.7093757,1.37485949 13.0612801,1.37485949 C13.4136531,1.37485949 13.7445139,1.51198335 13.9937991,1.76067211 C14.2423174,2.00948867 14.3791005,2.34030691 14.3791005,2.69242429 C14.3791005,3.04454168 14.2423174,3.37531732 13.9950344,3.62255774 C13.716825,3.88500574 12.6273314,4.29390663 11.280459,4.67477786 C11.2423762,4.54417153 11.19096,4.42059392 11.1259551,4.30349125 C11.4928966,3.03606462 11.8782833,2.02627239 12.1295279,1.76067211 L12.1295279,1.76067211 Z M4.99333626,1.73238686 C5.24193982,1.48386849 5.57331184,1.34674463 5.92517363,1.34674463 C6.2775892,1.34674463 6.60840745,1.4835277 6.85624424,1.73170528 C7.10949102,1.99969106 7.49939307,3.02256096 7.86893315,4.30315046 C7.80776202,4.41292623 7.75919998,4.52875095 7.72098933,4.65066723 C6.36772717,4.26932743 5.27150303,3.85833922 4.99329366,3.59601901 C4.47972879,3.08211336 4.47972879,2.24629251 4.99333626,1.73238686 L4.99333626,1.73238686 Z" id="birthday" sketch:type="MSShapeGroup"></path>
            </g>
        </g>
    </g>
</svg>