<?xml version="1.0" encoding="UTF-8" standalone="no"?>
<svg width="15px" height="20px" viewBox="0 0 15 20" version="1.1" xmlns="http://www.w3.org/2000/svg" xmlns:xlink="http://www.w3.org/1999/xlink" xmlns:sketch="http://www.bohemiancoding.com/sketch/ns">
    <!-- Generator: Sketch 3.3.3 (12081) - http://www.bohemiancoding.com/sketch -->
    <title>geo</title>
    <desc>Created with Sketch.</desc>
    <defs></defs>
    <g id="home" stroke="none" stroke-width="1" fill="none" fill-rule="evenodd" sketch:type="MSPage">
        <g id="profile" sketch:type="MSArtboardGroup" transform="translate(-521.000000, -452.000000)" fill="#FFFFFF">
            <g id="ЛОНДОН,-ВЕЛИКОБРИТАН-+-Shape" sketch:type="MSLayerGroup" transform="translate(521.000000, 452.000000)">
                <path d="M7.57740813,0.8375 C3.77362731,0.8375 0.678668402,3.96629592 0.678668402,7.81205102 C0.678668402,8.81517347 0.881764293,9.77292857 1.28201087,10.658949 C3.00688758,14.4746531 6.31395607,18.5032347 7.2866684,19.6469184 C7.35954511,19.7324184 7.46579169,19.7816633 7.57759991,19.7816633 C7.68940813,19.7816633 7.7956547,19.7324184 7.86853142,19.6469184 C8.84086018,18.5034286 12.1479287,14.4750408 13.8733807,10.658949 C14.2738191,9.77292857 14.4767232,8.81517347 14.4767232,7.81205102 C14.4763396,3.96629592 11.3813807,0.8375 7.57740813,0.8375 L7.57740813,0.8375 Z M7.57740813,11.4346531 C5.60149032,11.4346531 3.99379169,9.80937755 3.99379169,7.81185714 C3.99379169,5.81414286 5.60149032,4.18886735 7.57740813,4.18886735 C9.55332594,4.18886735 11.1610246,5.81414286 11.1610246,7.81185714 C11.1612163,9.80937755 9.55351772,11.4346531 7.57740813,11.4346531 L7.57740813,11.4346531 Z" id="geo" sketch:type="MSShapeGroup"></path>
            </g>
        </g>
    </g>
</svg>